Coordinates
version=1
nRows=19
nColumns=36
inDegrees=yes

Units are S.I. units (second, meters, Newtons, ...)
If the header above contains a line with 'inDegrees', this indicates whether rotational values are in degrees (yes) or radians (no).

endheader
time	pelvis_tilt	pelvis_list	pelvis_rotation	pelvis_tx	pelvis_ty	pelvis_tz	hip_flexion_r	hip_adduction_r	hip_rotation_r	knee_angle_r	knee_angle_r_beta	ankle_angle_r	subtalar_angle_r	mtp_angle_r	hip_flexion_l	hip_adduction_l	hip_rotation_l	knee_angle_l	knee_angle_l_beta	ankle_angle_l	subtalar_angle_l	mtp_angle_l	lumbar_extension	lumbar_bending	lumbar_rotation	arm_flex_r	arm_add_r	arm_rot_r	elbow_flex_r	pro_sup_r	arm_flex_l	arm_add_l	arm_rot_l	elbow_flex_l	pro_sup_l
      0.00000000	     12.24651273	    -10.28460370	     62.96918454	     -1.01798202	      1.08762883	      0.37035415	     31.67543028	      4.89505460	     34.16003720	     36.76655466	      0.64169743	     16.22906637	     34.64771652	     -7.17939603	     35.88417552	    -32.84694726	     13.28994154	     17.25409309	      0.30114073	    -14.22512897	     31.84704930	     -7.17939603	    -14.22812662	     24.81715304	     10.78524374	     47.16161642	    -28.81258287	    124.97787199	     80.16540249	     53.90363035	     12.37660284	     17.57269140	     32.94491944	     20.42036152	     59.48085844
      0.00416670	     11.89861879	    -15.62719645	     63.66481267	     -1.02076212	      1.07937460	      0.35967966	     34.90007803	      7.69084388	     39.59353603	     35.91187722	      0.62678050	     21.15742087	     34.70792575	     -7.21997993	     41.03021543	    -33.10009484	     20.82669641	     16.74988959	      0.29234072	    -12.37933675	     32.22086741	     -7.21997993	    -10.39731676	     29.46430052	     11.98519180	     48.59124684	    -31.28271467	    128.65404691	     84.34744647	     57.04844072	     10.76965864	     16.96991810	     43.43259547	     19.95656930	     64.71300818
      0.00833330	     12.55308584	    -17.27941357	     63.43911183	     -1.02551633	      1.07670561	      0.35340156	     36.51009510	      8.76632484	     39.77183418	     37.58475399	      0.65597771	     22.44611391	     34.77605604	     -7.33311463	     42.37551806	    -33.96191834	     22.67165150	     15.76034292	      0.27506988	    -10.93085615	     32.51582537	     -7.33311463	     -8.53024731	     32.12936266	     12.66342794	     48.81173140	    -32.05577774	    130.63452628	     84.91594831	     60.73869919	     11.34683574	     17.06588675	     52.26907906	     16.89260055	     61.36683058
      0.01250000	     11.91190154	    -18.51649102	     62.38499015	     -1.02965468	      1.07453781	      0.34710287	     37.56361388	      8.24035901	     39.80731561	     36.71558323	      0.64080781	     21.42004685	     34.78803832	     -7.34536621	     42.58885914	    -34.29285640	     22.69893513	     14.73610037	      0.25719347	     -9.02186046	     32.01420868	     -7.34536621	     -7.62406311	     32.66934677	     12.30985224	     47.94170728	    -31.74218004	    130.89902914	     82.60598025	     60.90817713	     10.98678784	     16.84657496	     52.78246963	     15.50126344	     61.11885664
      0.01666670	     11.41057019	    -19.80257052	     61.77120251	     -1.03346265	      1.07236865	      0.34160379	     38.81776525	      8.23054371	     39.82770719	     37.07280659	      0.64704254	     22.07632171	     34.79548975	     -7.36481372	     43.78432353	    -34.31458574	     23.60843486	     15.35497212	      0.26799482	     -6.61482278	     31.66738079	     -7.36481372	     -5.73582563	     33.49560843	     11.52453992	     45.33679097	    -31.88718864	    129.08047322	     78.81124529	     62.43994385	     11.09266240	     16.90203379	     58.09427538	     12.74550624	     59.92355388
      0.02083330	     11.06690032	    -20.58669684	     61.02306973	     -1.03783335	      1.07114302	      0.33615045	     39.39387966	      8.14104905	     39.84977336	     36.75673442	      0.64152604	     21.73641744	     34.79511557	     -7.36743022	     44.10441290	    -34.29494726	     24.13435970	     16.04429670	      0.28002580	     -4.35572366	     31.10108384	     -7.36743022	     -5.18136564	     34.05938773	     10.17024035	     43.53948769	    -31.25165317	    127.81737062	     74.62510347	     62.72973455	     10.93717024	     16.73763070	     58.89262175	     11.28964588	     59.40818592
      0.02500000	      9.97350364	    -22.01031907	     59.75900857	     -1.04124014	      1.06846087	      0.33072451	     41.09766889	      7.92624501	     39.86745173	     36.66467771	      0.63991935	     21.94013898	     34.79913802	     -7.43386925	     45.11148419	    -34.20988111	     24.45410660	     16.73946529	      0.29215878	     -2.64268371	     30.22475005	     -7.43386925	     -3.15155215	     34.07481936	     10.25695702	     38.59712823	    -32.38096351	    121.10227230	     70.15480066	     72.25260429	     11.12277368	     17.07393986	     73.59100945	      8.22360647	     41.14296249
      0.02916670	      8.91201602	    -23.26038271	     58.36338430	     -1.04486134	      1.06589834	      0.32536904	     42.61146835	      7.80697259	     39.88208528	     36.39281400	      0.63517443	     21.70637599	     34.80091298	     -7.43637772	     45.92144733	    -34.15003118	     24.78374457	     17.50163208	      0.30546110	     -1.12957138	     28.89177054	     -7.43637772	     -1.47762992	     34.27912656	      8.98174338	     36.13719211	    -31.59347255	    118.49820304	     65.84964715	     72.25710500	     10.42327767	     16.85524624	     73.77885181	      7.12049033	     41.03638730
      0.03333330	      7.58758629	    -24.54237243	     56.82784651	     -1.04842242	      1.06263816	      0.31991559	     44.24874967	      7.48908826	     39.89463690	     35.96291012	      0.62767119	     21.42452154	     34.80171192	     -7.45211493	     46.87017614	    -33.97466869	     25.01978633	     18.34355268	      0.32015539	      0.46711272	     27.19685223	     -7.45211493	      0.45880486	     34.14583381	      9.04416793	     31.43332200	    -32.26658420	    110.49864945	     62.16678554	     78.99530333	      9.75484008	     16.78806177	     75.30107986	      6.06153758	     41.38830805
      0.03750000	      6.33125714	    -25.67455057	     55.27837871	     -1.05261560	      1.05976797	      0.31433156	     45.59694550	      7.11432205	     39.90406724	     35.17332877	      0.61389040	     20.62052389	     34.80014745	     -7.45315436	     47.64927774	    -33.75527789	     25.40369028	     19.16077461	      0.33441860	      1.85967261	     24.98894545	     -7.45315436	      2.25748436	     34.31215058	      7.48335633	     29.88944865	    -31.35120595	    107.91021580	     58.75741189	     79.15667720	      8.92384241	     16.50588689	     74.73227964	      5.30486208	     41.35588214
      0.04166670	      4.26927572	    -27.20687835	     53.16574440	     -1.05604814	      1.05544437	      0.30903924	     47.84656384	      6.62478443	     39.91424733	     34.53358160	      0.60272470	     20.37382201	     34.80449848	     -7.46714305	     49.02933934	    -33.46077541	     25.07674193	     20.03239724	      0.34963129	      3.04072131	     23.09195793	     -7.46714305	      4.90331575	     33.74665191	      9.03401055	     22.95566580	    -32.62666823	     94.35603884	     56.02185980	     91.03768274	      7.88242154	     16.53429340	     69.65945584	      5.28508258	     46.13726772
      0.04583330	      2.23049490	    -28.53895143	     51.13436060	     -1.06029776	      1.05151112	      0.30372951	     49.85332829	      6.00958105	     39.92213588	     33.68080563	      0.58784095	     19.75756725	     34.80628431	     -7.48109963	     50.35840712	    -33.01761382	     24.96153212	     20.98600654	      0.36627491	      4.40973548	     20.62429550	     -7.48109963	      7.35906410	     33.42313602	      9.52698559	     18.36472360	    -32.76847742	     85.01797579	     53.91924741	     96.54258327	      6.73430758	     16.46992615	     63.96066323	      5.41309342	     53.39673765
      0.05000000	      0.16642829	    -29.81139319	     48.95036005	     -1.06493440	      1.04721600	      0.29863449	     51.75969526	      5.44925499	     39.92851100	     32.52320148	      0.56763695	     18.74419227	     34.80828700	     -7.48402266	     51.71002967	    -32.64504625	     24.71418793	     21.94436334	      0.38300139	      5.52863944	     18.23511543	     -7.48402266	      9.67456410	     33.39849119	      8.97107272	     16.88166892	    -32.33152748	     82.01279063	     52.22474192	     94.00589874	      5.52017525	     16.56736193	     61.92473875	      5.11727521	     53.72321496
      0.05416670	     -2.34964891	    -31.15230089	     46.48723407	     -1.06948092	      1.04221999	      0.29361458	     54.02111099	      4.81705274	     39.93470211	     31.32385181	      0.54670435	     17.81549193	     34.81086896	     -7.49081033	     53.33303549	    -32.12662910	     24.37024780	     22.85498084	      0.39889467	      6.25710997	     15.76020561	     -7.49081033	     12.27006908	     33.11025940	     10.28772147	     12.31987235	    -32.47497041	     73.67639576	     51.34189117	     89.90225387	      4.13651239	     16.87045403	     55.59247911	      5.62731825	     54.79956860
      0.05833330	     -4.97223427	    -32.39713903	     43.95107010	     -1.07433397	      1.03740057	      0.28859944	     56.20878342	      4.14044776	     39.93966834	     29.87890377	      0.52148525	     16.89654397	     34.81482455	     -7.49437374	     55.05652051	    -31.64338125	     23.72079424	     23.75180386	      0.41454718	      6.92463334	     13.87050280	     -7.49437374	     14.61218824	     32.91146775	     12.68086304	      6.01927085	    -32.92328066	     60.60496871	     52.44670542	    101.62086305	      3.10433590	     17.30350834	     52.55980786	      5.77511284	     59.62402538
      0.06250000	     -7.75266767	    -33.50277042	     41.22712902	     -1.07924792	      1.03284292	      0.28392366	     58.38269646	      3.48124323	     39.94354109	     28.25142229	      0.49308034	     15.53762747	     34.81970510	     -7.49600578	     56.77619679	    -31.19620699	     23.03942704	     24.64465447	      0.43013036	      7.69799324	     11.70780110	     -7.49600578	     16.99430745	     32.81921016	     13.90240225	      2.76824522	    -32.96157320	     54.73123361	     52.85274068	     99.57938755	      2.08707775	     17.83426669	     48.83309929	      5.74961616	     59.63461577
      0.06666670	    -10.63769797	    -34.37832195	     38.42690904	     -1.08404802	      1.02809793	      0.27923432	     60.41258174	      2.75340886	     39.94650227	     26.39985850	      0.46076445	     13.82092677	     34.82496958	     -7.49758845	     58.38882689	    -30.68791397	     22.25238190	     25.49276132	      0.44493262	      8.26077341	      9.46762461	     -7.49758845	     19.12077126	     32.67614430	     15.36981869	     -0.53561437	    -33.05482989	     48.55165380	     53.82213057	    101.82422581	      1.32541277	     18.36595423	     45.94731861	      5.58272859	     60.25193458
      0.07083330	    -13.64404367	    -35.04454428	     35.64534144	     -1.08862930	      1.02362031	      0.27463863	     62.40374977	      1.93463523	     39.94886142	     24.48688515	      0.42737677	     11.98591092	     34.83127538	     -7.49954507	     60.02576317	    -30.11912597	     21.33287394	     26.40030058	      0.46077217	      9.10524371	      7.30251572	     -7.49954507	     21.27246231	     32.41249120	     16.77536218	     -3.52266146	    -33.01063337	     43.31466475	     54.62396691	    101.35999682	      0.74951888	     18.85950407	     42.49799702	      5.45890054	     60.86158796
      0.07500000	    -16.58799884	    -35.46344065	     32.85849636	     -1.09286792	      1.01972551	      0.27000073	     64.19175649	      1.16811838	     39.95049832	     22.45898692	      0.39198327	      9.74681769	     34.83757919	     -7.49992020	     61.42321414	    -29.58795711	     20.27630320	     27.12053813	      0.47334269	      9.59614753	      5.23380653	     -7.49992020	     23.16746211	     32.10765115	     17.80648693	     -5.49725625	    -32.99578962	     39.75129715	     55.11080371	    100.73903648	      0.33619693	     19.32521681	     38.62370182	      5.41586026	     60.93643674
